<?xml version="1.0" standalone="no"?>
<!DOCTYPE svg PUBLIC "-//W3C//DTD SVG 20010904//EN"
 "http://www.w3.org/TR/2001/REC-SVG-20010904/DTD/svg10.dtd">
<svg version="1.0" xmlns="http://www.w3.org/2000/svg"
 width="500.000000pt" height="500.000000pt" viewBox="0 0 500.000000 500.000000"
 preserveAspectRatio="xMidYMid meet">

<g transform="translate(0.000000,500.000000) scale(0.100000,-0.100000)"
fill="#000000" stroke="none">
<path d="M2450 4253 c-8 -4 -37 -21 -63 -39 -58 -40 -106 -51 -157 -35 -97 29
-153 6 -229 -93 -46 -61 -119 -106 -171 -106 -63 0 -125 -68 -159 -172 -26
-80 -66 -137 -124 -179 -81 -58 -117 -135 -117 -249 0 -39 -14 -122 -35 -210
-38 -157 -43 -222 -21 -275 26 -62 74 -80 251 -96 148 -12 285 -46 285 -69 0
-3 -53 -12 -118 -19 -307 -31 -507 -98 -526 -176 -9 -37 5 -57 83 -114 38 -28
85 -72 106 -96 44 -55 71 -69 164 -90 54 -13 86 -27 130 -61 60 -45 119 -64
200 -64 21 0 72 -17 121 -40 82 -38 88 -40 191 -40 80 0 120 -5 164 -20 32
-11 70 -20 85 -20 15 0 53 9 85 20 44 15 84 20 164 20 103 0 109 2 191 40 59
27 99 40 130 40 76 1 130 19 195 65 48 35 81 49 146 64 83 19 85 21 149 89 36
38 91 88 123 112 52 39 57 46 57 80 0 78 -108 129 -355 169 -200 32 -255 38
-250 30 3 -4 29 -10 58 -14 353 -45 527 -104 527 -180 0 -29 -28 -46 -112 -68
-31 -8 -77 -30 -103 -50 -68 -53 -105 -62 -162 -43 -66 23 -84 20 -159 -19
-36 -19 -73 -35 -82 -35 -8 0 -46 10 -82 21 l-67 22 -66 -32 c-79 -37 -90 -37
-157 -11 -63 25 -100 25 -148 1 -66 -32 -88 -33 -155 -6 -77 30 -101 31 -158
5 -61 -27 -88 -25 -164 12 l-66 33 -62 -23 c-83 -29 -98 -28 -177 15 l-68 37
-69 -18 c-64 -16 -73 -16 -106 -2 -20 8 -54 28 -74 45 -21 16 -65 37 -98 47
-84 23 -115 41 -115 65 0 31 49 73 113 97 77 29 275 68 417 82 180 18 186 21
110 60 -60 31 -139 48 -273 60 -164 15 -222 32 -247 73 -29 46 -26 129 10 277
16 69 33 168 38 220 12 131 36 177 132 249 49 37 86 94 109 169 11 37 34 84
51 104 30 36 43 43 147 68 51 13 92 46 143 116 51 68 107 92 174 75 85 -21
127 -15 195 29 35 23 76 43 91 46 28 6 78 -13 155 -61 44 -27 112 -33 179 -14
62 17 116 -9 167 -81 48 -69 101 -107 161 -116 101 -16 143 -60 188 -198 23
-70 37 -88 153 -192 54 -49 77 -113 77 -214 0 -36 9 -100 20 -141 53 -194 60
-265 35 -325 -21 -52 -72 -70 -250 -88 -168 -18 -217 -29 -236 -53 -12 -15
-12 -16 6 -9 56 21 138 36 248 46 182 15 225 34 253 106 21 55 15 129 -22 264
-14 52 -29 143 -33 201 -12 151 -32 191 -144 282 -49 40 -85 100 -106 178 -15
53 -59 112 -99 133 -15 8 -53 19 -85 26 -61 12 -65 16 -184 144 -50 54 -86 63
-178 46 -79 -15 -100 -10 -178 40 -49 32 -70 40 -106 39 -26 0 -53 -3 -61 -6z"/>
<path d="M2415 4115 c-22 -8 -52 -28 -67 -45 -36 -39 -37 -88 -2 -222 45 -178
102 -567 79 -546 -3 3 -33 140 -65 303 -33 164 -66 319 -75 346 -23 68 -53 89
-129 89 -73 0 -121 -22 -153 -70 -39 -56 -31 -82 81 -302 94 -184 172 -354
191 -417 20 -68 -28 17 -160 278 -79 158 -156 300 -169 314 -20 22 -30 25 -63
20 -67 -9 -106 -35 -132 -87 -39 -78 -27 -101 158 -290 86 -89 171 -181 188
-206 34 -51 76 -130 68 -130 -7 0 -58 57 -142 160 -77 94 -332 330 -356 330
-23 0 -85 -62 -92 -93 -4 -15 -4 -43 -1 -62 6 -29 21 -45 104 -105 53 -39 144
-105 202 -147 102 -75 238 -199 228 -209 -3 -2 -54 32 -114 78 -125 94 -318
222 -398 264 -68 35 -78 29 -84 -56 -4 -60 -4 -61 35 -98 25 -24 81 -56 158
-90 156 -68 271 -133 331 -188 49 -44 49 -44 14 -30 -19 8 -109 50 -200 94
-182 88 -286 131 -335 139 -31 5 -33 3 -50 -40 -17 -44 -16 -47 1 -83 25 -49
62 -67 209 -99 148 -33 316 -86 414 -131 41 -19 75 -34 76 -34 1 0 2 30 3 68
1 182 133 327 311 340 80 5 144 -12 216 -60 89 -59 153 -197 139 -300 -3 -27
-4 -48 -1 -48 2 0 37 15 78 34 98 45 266 98 414 131 135 30 180 48 201 81 30
45 11 144 -27 144 -34 0 -165 -53 -339 -137 -96 -47 -191 -91 -210 -99 -35
-14 -35 -14 14 30 60 55 175 120 331 188 77 34 133 66 158 90 39 37 39 38 35
98 -6 85 -16 91 -84 56 -80 -42 -273 -170 -398 -264 -60 -46 -110 -81 -113
-79 -2 2 17 27 42 55 45 50 155 136 377 296 93 66 108 81 114 111 3 19 3 47
-1 62 -7 31 -69 93 -92 93 -25 0 -279 -238 -371 -347 -113 -137 -119 -143
-126 -143 -9 0 31 76 67 130 17 25 100 115 184 201 160 164 189 207 177 263
-15 69 -62 108 -146 120 l-48 7 -41 -63 c-22 -35 -94 -171 -159 -303 -115
-234 -159 -312 -145 -255 15 56 93 226 191 419 66 130 104 215 104 235 0 75
-78 135 -175 136 -66 0 -96 -17 -119 -65 -11 -21 -48 -180 -82 -353 -35 -173
-66 -317 -70 -321 -22 -20 36 370 80 547 36 141 35 185 -7 227 -53 53 -149 69
-232 40z"/>
<path d="M1572 1407 c-16 -17 -22 -36 -22 -67 0 -39 6 -49 55 -101 38 -40 55
-66 56 -86 3 -70 -9 -92 -50 -94 -24 -2 -24 -2 -3 -6 56 -11 102 66 82 136 -5
18 -32 58 -60 87 -45 48 -51 59 -48 91 6 71 64 71 82 0 12 -46 30 -49 21 -4
-15 67 -71 89 -113 44z"/>
<path d="M2901 1411 c-45 -45 -33 -128 24 -165 37 -24 65 -75 65 -117 0 -42
-16 -66 -50 -72 -24 -4 -24 -4 3 -6 44 -2 77 38 77 94 0 55 -16 88 -66 135
-46 44 -56 71 -42 110 8 26 15 31 37 28 21 -2 29 -12 43 -53 16 -50 16 -50 17
-15 2 71 -62 107 -108 61z"/>
<path d="M1725 1235 l0 -185 35 1 c19 0 29 3 23 6 -9 3 -13 32 -13 94 l0 89
31 0 30 0 -3 -95 -3 -95 25 0 25 0 0 185 0 185 -25 0 c-25 0 -25 0 -22 -85 l3
-85 -30 0 -31 0 0 79 c0 54 4 81 13 84 6 3 -4 6 -23 6 l-35 1 0 -185z"/>
<path d="M1930 1241 c0 -134 -3 -181 -12 -184 -7 -3 20 -6 60 -6 l72 -1 -1 48
c-1 45 -1 46 -11 17 -15 -41 -27 -55 -49 -55 -17 0 -19 9 -19 89 0 77 2 90 18
94 16 4 16 5 0 6 -16 1 -18 12 -18 86 0 78 -2 85 -20 85 -19 0 -20 -7 -20
-179z"/>
<path d="M2013 1403 c8 -10 17 -31 20 -48 3 -21 4 -16 6 18 1 42 -1 47 -21 47
-19 0 -20 -1 -5 -17z"/>
<path d="M2085 1235 l0 -185 58 0 57 0 -1 48 -1 47 -12 -40 c-8 -29 -18 -41
-34 -43 l-22 -3 0 174 c0 131 3 177 13 180 6 3 -4 6 -23 6 l-35 1 0 -185z"/>
<path d="M2238 1413 c9 -3 12 -49 12 -178 0 -129 -3 -175 -12 -178 -7 -3 15
-6 50 -6 l62 -1 -1 43 c-1 27 -3 33 -6 17 -6 -31 -21 -50 -40 -50 -12 0 -13
30 -11 180 l3 180 -35 -1 c-19 0 -29 -3 -22 -6z"/>
<path d="M2508 1243 c2 -136 0 -178 -10 -184 -8 -5 7 -8 37 -7 28 0 40 3 27 5
l-23 5 3 179 c3 173 2 179 -17 179 -19 0 -20 -6 -17 -177z"/>
<path d="M2599 1406 c9 -11 11 -63 9 -180 -2 -91 -1 -166 3 -166 23 0 29 34
29 182 0 145 -1 158 -19 168 -27 14 -36 13 -22 -4z"/>
<path d="M2688 1243 c2 -136 0 -178 -10 -184 -8 -5 15 -9 55 -9 l67 0 -1 43 0
42 -12 -35 c-8 -24 -19 -36 -34 -38 -22 -3 -23 -1 -23 87 0 77 2 90 18 94 16
4 16 5 0 6 -16 1 -18 12 -18 86 0 81 -1 85 -22 85 l-23 0 3 -177z"/>
<path d="M2770 1405 c7 -8 16 -30 20 -48 7 -30 8 -29 9 16 1 42 -1 47 -20 47
-18 0 -19 -2 -9 -15z"/>
<path d="M3048 1413 c9 -3 12 -49 12 -178 0 -129 -3 -175 -12 -178 -7 -3 3 -6
22 -6 l35 -1 0 185 0 185 -35 -1 c-19 0 -29 -3 -22 -6z"/>
<path d="M3197 1409 c-45 -26 -75 -156 -57 -245 14 -67 51 -114 89 -114 51 0
64 19 70 109 l6 81 -45 -1 c-25 -1 -35 -4 -22 -6 22 -4 23 -8 20 -86 -3 -80
-4 -82 -28 -82 -32 0 -49 35 -56 117 -8 77 9 174 36 211 21 28 17 34 -13 16z"/>
<path d="M3264 1398 c9 -12 16 -40 16 -61 0 -23 4 -36 10 -32 17 11 12 80 -8
98 -26 24 -36 21 -18 -5z"/>
<path d="M3338 1413 c9 -3 12 -49 12 -178 0 -129 -3 -175 -12 -178 -7 -3 1 -5
17 -5 17 0 24 2 18 5 -10 3 -13 39 -13 131 0 73 4 122 9 117 5 -6 25 -62 46
-125 21 -63 41 -119 46 -124 4 -5 9 75 11 177 3 180 2 187 -16 187 -16 0 -17
-3 -8 -12 8 -8 12 -49 12 -117 0 -62 -4 -101 -9 -96 -5 6 -24 58 -41 118 -31
101 -35 107 -59 106 -14 0 -20 -3 -13 -6z"/>
<path d="M1512 1153 c12 -45 34 -79 56 -88 13 -5 12 -1 -5 17 -28 31 -36 63
-23 88 9 18 8 20 -14 20 -23 0 -24 -2 -14 -37z"/>
<path d="M2840 1155 c8 -34 35 -85 45 -85 3 0 -2 14 -11 31 -10 19 -14 43 -10
60 4 24 2 29 -13 29 -16 0 -18 -5 -11 -35z"/>
</g>
</svg>
